<?xml version="1.0"?>
<svg id="Layer_1" data-name="Layer 1" xmlns="http://www.w3.org/2000/svg" viewBox="0 0 1103.98 185.05">
  <defs>
    
  </defs>
  <g>
    <path class="cls-1" d="M89.7,1.18C40.24,1.18,0,41.42,0,90.88s40.24,89.7,89.7,89.7c5.77,0,11.41-.55,16.87-1.59,25.74-4.92,47.62-20.87,60.49-42.74,7.84-13.32,12.34-28.83,12.34-45.37C179.41,41.42,139.17,1.18,89.7,1.18ZM89.7,158.93c-3.9,0-7.72-.33-11.44-.97-32.09-5.45-56.61-33.46-56.61-67.09,0-37.53,30.53-68.05,68.05-68.05s68.05,30.53,68.05,68.05c0,3.98-.34,7.89-1.01,11.69-5.55,31.98-33.5,56.36-67.04,56.36Z"></path>
    <path class="cls-1" d="M167.21,132.52c0,1.26-.05,2.5-.14,3.73-12.87,21.87-34.75,37.82-60.49,42.74-11.89-3.19-21.96-10.83-28.32-21.02-4.62-7.38-7.28-16.1-7.28-25.44,0-26.57,21.54-48.12,48.12-48.12,15.25,0,28.84,7.09,37.65,18.16,6.55,8.22,10.46,18.63,10.46,29.95Z"></path>
    <g>
      <path class="cls-1" d="M196.83,37.8v106.26c0,20.17,16.41,36.58,36.57,36.58h106.26c20.16,0,36.57-16.41,36.57-36.58V37.8c0-20.16-16.41-36.57-36.57-36.57h-106.26c-20.16,0-36.57,16.41-36.57,36.57ZM218.48,37.8c0-8.23,6.69-14.92,14.92-14.92h106.26c8.23,0,14.92,6.69,14.92,14.92v106.26c0,8.23-6.69,14.92-14.92,14.92h-106.26c-8.23,0-14.92-6.69-14.92-14.92V37.8Z"></path>
      <path class="cls-1" d="M284.53,137.04c0,7.91,1.91,15.37,5.29,21.94,4.87,9.48,12.78,17.13,22.45,21.65h27.4c20.16,0,36.57-16.41,36.57-36.58v-27.4c-4.53-9.67-12.18-17.59-21.65-22.45-6.58-3.38-14.04-5.29-21.94-5.29-26.57,0-48.12,21.54-48.12,48.12Z"></path>
    </g>
  </g>
  <g>
    <g>
      <path class="cls-1" d="M471.48,185.05c-7.37,0-14.13-1.26-20.28-3.77-6.15-2.51-11.43-6.04-15.83-10.58-4.4-4.54-7.84-9.88-10.31-16.04-2.47-6.15-3.71-12.87-3.71-20.15s1.23-14.28,3.71-20.48c2.47-6.2,5.95-11.52,10.44-15.97,4.49-4.45,9.84-7.93,16.04-10.44,6.2-2.51,12.98-3.77,20.35-3.77s14.1,1.26,20.21,3.77c6.11,2.52,11.36,6.04,15.77,10.58,4.4,4.54,7.84,9.9,10.31,16.1s3.71,12.94,3.71,20.21-1.24,14.15-3.71,20.35c-2.47,6.2-5.93,11.52-10.38,15.97-4.45,4.45-9.77,7.93-15.97,10.44-6.2,2.51-12.98,3.77-20.35,3.77ZM471.61,118.49c-5.39,0-9.34,1.57-11.86,4.72-2.52,3.15-3.77,7.23-3.77,12.26,0,4.58,1.48,8.24,4.45,10.98,2.96,2.74,6.69,4.11,11.18,4.11,5.3,0,9.23-1.57,11.79-4.72,2.56-3.14,3.84-7.23,3.84-12.26,0-4.58-1.48-8.24-4.45-10.98-2.96-2.74-6.69-4.11-11.18-4.11Z"></path>
      <path class="cls-1" d="M592.61,122.8c-1.8-1.35-3.77-2.43-5.93-3.23-2.16-.81-4.36-1.21-6.6-1.21s-4.38.4-6.4,1.21-3.8,1.93-5.32,3.37c-1.53,1.44-2.74,3.17-3.64,5.19-.9,2.02-1.35,4.25-1.35,6.67s.45,4.6,1.35,6.54c.9,1.93,2.11,3.59,3.64,4.99,1.53,1.39,3.28,2.45,5.26,3.17,1.97.72,4.04,1.08,6.2,1.08,2.34,0,4.6-.4,6.8-1.21s4.15-1.93,5.86-3.37c1.26-.99,2.24-1.48,2.96-1.48.81,0,1.66.58,2.56,1.75l15.09,20.62c1.97,2.52,1.89,4.76-.27,6.74-2.16,1.98-4.63,3.71-7.41,5.19-2.79,1.48-5.73,2.67-8.83,3.57-3.1.9-6.22,1.57-9.36,2.02-3.15.45-6.15.67-9.03.67-7.01,0-13.54-1.24-19.61-3.71-6.06-2.47-11.3-5.93-15.7-10.38-4.4-4.45-7.86-9.77-10.38-15.97-2.52-6.2-3.77-12.98-3.77-20.35s1.21-14.01,3.64-20.21c2.43-6.2,5.82-11.57,10.17-16.1,4.36-4.54,9.57-8.08,15.63-10.64,6.06-2.56,12.73-3.84,20.01-3.84,2.88,0,5.88.23,9.03.67,3.14.45,6.27,1.12,9.36,2.02,3.1.9,6.04,2.07,8.83,3.5,2.78,1.44,5.26,3.19,7.41,5.26,2.06,1.98,2.16,4.27.27,6.87l-14.96,20.35c-.9,1.17-1.75,1.75-2.56,1.75-.72,0-1.71-.49-2.96-1.48Z"></path>
      <path class="cls-1" d="M644.89,125.63h-19.54c-2.96,0-4.45-1.44-4.45-4.31v-29.51c0-2.96,1.48-4.45,4.45-4.45h72.76c2.96,0,4.45,1.48,4.45,4.45v29.51c0,2.88-1.48,4.31-4.45,4.31h-19.54v51.61c0,2.88-1.48,4.31-4.45,4.31h-24.79c-2.96,0-4.45-1.44-4.45-4.31v-51.61Z"></path>
      <path class="cls-1" d="M758.89,185.05c-7.37,0-14.13-1.26-20.28-3.77-6.15-2.51-11.43-6.04-15.83-10.58-4.4-4.54-7.84-9.88-10.31-16.04-2.47-6.15-3.71-12.87-3.71-20.15s1.23-14.28,3.71-20.48,5.95-11.52,10.44-15.97c4.49-4.45,9.84-7.93,16.04-10.44,6.2-2.51,12.98-3.77,20.35-3.77s14.1,1.26,20.21,3.77c6.11,2.52,11.36,6.04,15.77,10.58,4.4,4.54,7.84,9.9,10.31,16.1,2.47,6.2,3.71,12.94,3.71,20.21s-1.24,14.15-3.71,20.35c-2.47,6.2-5.93,11.52-10.38,15.97-4.45,4.45-9.77,7.93-15.97,10.44-6.2,2.51-12.98,3.77-20.35,3.77ZM759.03,118.49c-5.39,0-9.34,1.57-11.86,4.72-2.52,3.15-3.77,7.23-3.77,12.26,0,4.58,1.48,8.24,4.45,10.98,2.96,2.74,6.69,4.11,11.19,4.11,5.3,0,9.23-1.57,11.79-4.72,2.56-3.14,3.84-7.23,3.84-12.26,0-4.58-1.48-8.24-4.45-10.98-2.96-2.74-6.69-4.11-11.18-4.11Z"></path>
      <path class="cls-1" d="M875.45,87.36c4.13,0,8.08.79,11.86,2.36,3.77,1.57,7.1,3.73,9.97,6.47,2.87,2.74,5.16,5.93,6.87,9.57,1.71,3.64,2.56,7.57,2.56,11.79,0,5.12-.58,9.93-1.75,14.42-1.17,4.49-3.03,8.42-5.59,11.79-2.56,3.37-5.79,6.04-9.7,8.02-3.91,1.98-8.65,2.96-14.21,2.96h-22.37v22.5c0,2.88-1.44,4.31-4.31,4.31h-24.79c-2.96,0-4.45-1.44-4.45-4.31v-85.43c0-2.96,1.48-4.45,4.45-4.45h51.47ZM853.08,118.76v12.4h15.63c1.26,0,2.31-.61,3.17-1.82s1.28-2.67,1.28-4.38-.43-3.17-1.28-4.38-1.91-1.82-3.17-1.82h-15.63Z"></path>
      <path class="cls-1" d="M948.75,131.96c0,1.71.09,3.3.27,4.78.18,1.48.61,2.79,1.28,3.91.67,1.12,1.64,2.02,2.9,2.7s2.92,1.01,4.99,1.01,3.73-.34,4.99-1.01c1.26-.67,2.22-1.57,2.9-2.7.67-1.12,1.12-2.42,1.35-3.91.22-1.48.34-3.08.34-4.78v-40.16c0-2.96,1.44-4.45,4.31-4.45h24.79c2.96,0,4.45,1.48,4.45,4.45v46.76c0,8.17-.94,15.16-2.83,20.95s-4.67,10.49-8.35,14.08c-3.69,3.59-8.2,6.22-13.54,7.88-5.35,1.66-11.48,2.49-18.39,2.49s-13.05-.76-18.39-2.29c-5.35-1.53-9.84-4.04-13.47-7.55-3.64-3.5-6.4-8.15-8.29-13.95s-2.83-13-2.83-21.63v-46.76c0-2.96,1.48-4.45,4.45-4.45h24.66c2.96,0,4.45,1.48,4.45,4.45v40.16Z"></path>
      <path class="cls-1" d="M1087,117.68c-2.07-.99-4.78-1.98-8.15-2.96-3.37-.99-7.3-1.48-11.79-1.48-4.76,0-8.11.65-10.04,1.95-1.93,1.3-2.9,2.81-2.9,4.51s1.23,2.76,3.71,3.17,5.55.7,9.23.88c3.68.18,7.68.52,11.99,1.01,4.31.49,8.31,1.66,11.99,3.5,3.68,1.84,6.76,4.6,9.23,8.29,2.47,3.68,3.71,8.8,3.71,15.36,0,5.66-1.44,10.56-4.31,14.69-2.88,4.13-6.65,7.55-11.32,10.24-4.67,2.69-9.95,4.72-15.83,6.06-5.88,1.35-11.88,2.02-17.99,2.02-4.58,0-8.87-.25-12.87-.74-4-.5-7.66-1.1-10.98-1.82-3.32-.72-6.25-1.48-8.76-2.29-2.52-.81-4.58-1.53-6.2-2.16-2.7-.81-3.77-2.78-3.23-5.93l4.04-20.08c.54-1.97,1.44-2.96,2.7-2.96.27,0,.58.05.94.13.36.09.76.23,1.21.4,1.44.63,3.17,1.35,5.19,2.16,2.02.81,4.29,1.55,6.8,2.22,2.51.67,5.21,1.24,8.08,1.68,2.87.45,5.84.67,8.89.67,2.88,0,5.07-.2,6.6-.61,1.53-.4,2.63-.92,3.3-1.55.67-.63,1.05-1.37,1.15-2.22.09-.85.13-1.73.13-2.63,0-1.62-.72-2.76-2.16-3.44-1.44-.67-3.35-1.12-5.73-1.35-2.38-.22-5.08-.34-8.09-.34s-6.09-.18-9.23-.54c-3.14-.36-6.22-1.01-9.23-1.95s-5.71-2.42-8.08-4.45c-2.38-2.02-4.29-4.69-5.73-8.02-1.44-3.32-2.16-7.55-2.16-12.67,0-4.04.92-8.02,2.76-11.93,1.84-3.91,4.63-7.39,8.36-10.44,3.73-3.05,8.44-5.52,14.15-7.41,5.7-1.89,12.46-2.83,20.28-2.83h.4c4.85,0,9.41.27,13.68.81,4.27.54,8.17,1.19,11.72,1.95,3.55.76,6.71,1.57,9.5,2.43,2.79.85,5.03,1.64,6.74,2.36,2.78.99,3.55,2.92,2.29,5.79l-8.36,18.6c-.63,1.62-1.71,2.43-3.23,2.43-.81,0-1.62-.18-2.43-.54Z"></path>
    </g>
    <g>
      <path class="cls-1" d="M452.78,57.92c-4.22,0-8.09-.72-11.61-2.16s-6.54-3.46-9.06-6.05c-2.52-2.6-4.49-5.66-5.9-9.18-1.41-3.52-2.12-7.36-2.12-11.53s.71-8.17,2.12-11.72c1.41-3.55,3.4-6.59,5.98-9.14,2.57-2.54,5.63-4.54,9.18-5.98,3.55-1.44,7.43-2.16,11.64-2.16s8.07.72,11.57,2.16c3.5,1.44,6.5,3.46,9.02,6.05,2.52,2.6,4.48,5.67,5.9,9.22,1.41,3.55,2.12,7.4,2.12,11.57s-.71,8.1-2.12,11.65c-1.41,3.55-3.39,6.59-5.94,9.14s-5.59,4.54-9.14,5.98-7.43,2.16-11.64,2.16ZM452.85,19.82c-3.08,0-5.35.9-6.79,2.7-1.44,1.8-2.16,4.14-2.16,7.02,0,2.62.85,4.72,2.54,6.29,1.7,1.57,3.83,2.35,6.4,2.35,3.03,0,5.28-.9,6.75-2.7,1.46-1.8,2.2-4.14,2.2-7.02,0-2.62-.85-4.72-2.54-6.29-1.7-1.57-3.83-2.35-6.4-2.35Z"></path>
      <path class="cls-1" d="M538.07,53.21c0,1.75-.8,2.8-2.39,3.16-1.65.46-3.32.82-5.01,1.08-1.7.26-3.39.39-5.09.39-2.21,0-4.27-.27-6.17-.81-1.9-.54-3.55-1.36-4.94-2.47-1.39-1.1-2.47-2.53-3.24-4.28-.77-1.75-1.16-3.8-1.16-6.17,0-1.65.15-3.26.46-4.86h-3.86v14.19c0,1.65-.82,2.47-2.47,2.47h-14.19c-1.7,0-2.54-.82-2.54-2.47V4.55c0-1.7.85-2.54,2.54-2.54h29.46c2.37,0,4.63.45,6.79,1.35,2.16.9,4.06,2.12,5.71,3.66,1.64,1.54,2.96,3.37,3.93,5.48.97,2.11,1.46,4.37,1.46,6.79,0,2.06-.3,4.01-.89,5.86-.59,1.85-1.44,3.52-2.54,5.01-1.11,1.49-2.46,2.76-4.05,3.82-1.6,1.05-3.39,1.86-5.4,2.43-.05.26-.09.49-.12.69-.03.21-.04.44-.04.69,0,1.13.36,1.9,1.08,2.31.72.41,1.59.62,2.62.62,1.18,0,2.46-.18,3.82-.54,1.36-.36,2.66-.77,3.89-1.23.46-.15.85-.23,1.16-.23.77,0,1.16.59,1.16,1.77v12.72ZM506.68,27.38h8.1c1.13,0,1.98-.36,2.54-1.08.56-.72.85-1.59.85-2.62s-.3-1.9-.89-2.62c-.59-.72-1.43-1.08-2.51-1.08h-8.1v7.4Z"></path>
      <path class="cls-1" d="M596.68,29.46c-.15,1.75-.26,3.6-.31,5.55-.05,1.95-.08,4.24-.08,6.86,0,1.34.01,3.06.04,5.17.03,2.11.24,4.29.66,6.56.21,1.65-.49,2.47-2.08,2.47h-8.41c-1.75,0-2.91-.77-3.47-2.31-.1-.26-.21-.54-.31-.85-.1-.31-.21-.59-.31-.85-1.44,1.8-3.41,3.23-5.9,4.28-2.49,1.05-5.38,1.58-8.68,1.58-3.75,0-7.16-.72-10.22-2.16-3.06-1.44-5.68-3.42-7.87-5.94-2.19-2.52-3.87-5.5-5.05-8.95-1.18-3.44-1.77-7.17-1.77-11.18,0-4.32.69-8.29,2.08-11.92,1.39-3.62,3.33-6.76,5.82-9.41,2.49-2.65,5.47-4.71,8.95-6.17s7.29-2.2,11.45-2.2c1.64,0,3.37.13,5.17.39,1.8.26,3.59.64,5.36,1.16,1.78.51,3.46,1.18,5.05,2,1.59.82,3.01,1.83,4.24,3.01,1.18,1.08,1.23,2.39.15,3.93l-8.56,11.65c-.52.67-1.03,1-1.54,1-.41,0-.98-.28-1.7-.85-.98-.77-2.08-1.39-3.32-1.85-1.23-.46-2.49-.69-3.78-.69s-2.51.23-3.66.69c-1.16.46-2.17,1.12-3.05,1.97-.88.85-1.57,1.86-2.08,3.05s-.77,2.49-.77,3.93c0,2.57.8,4.68,2.39,6.32s3.75,2.47,6.48,2.47c1.54,0,2.98-.3,4.32-.89s2.42-1.53,3.24-2.82v-.23h-5.63c-1.7,0-2.54-.82-2.54-2.47v-2.24c0-1.7.85-2.54,2.54-2.54h20.98c1.64,0,2.37.82,2.16,2.47Z"></path>
      <path class="cls-1" d="M637.4,50.05h-16.12l-1,3.47c-.57,1.65-1.65,2.47-3.24,2.47h-14.42c-1.75,0-2.34-.8-1.77-2.39l15.89-49.2c.51-1.59,1.62-2.39,3.32-2.39h16.19c1.7,0,2.8.8,3.32,2.39l18.05,49.2c.62,1.59.08,2.39-1.62,2.39h-14.04c-1.7,0-2.8-.8-3.31-2.39l-1.23-3.55ZM634.08,40.49l-5.4-15.81-4.63,15.81h10.03Z"></path>
      <path class="cls-1" d="M665.32,55.91c-1.7,0-2.54-.82-2.54-2.47V4.55c0-1.7.85-2.54,2.54-2.54h11.41c1.7,0,2.96.72,3.78,2.16l12.26,21.13V4.55c0-1.7.85-2.54,2.54-2.54h14.19c1.7,0,2.54.85,2.54,2.54v48.89c0,1.65-.85,2.47-2.54,2.47h-11.64c-1.7,0-2.98-.69-3.86-2.08l-12.03-19.28v18.89c0,1.65-.82,2.47-2.47,2.47h-14.19Z"></path>
      <path class="cls-1" d="M722.31,55.91c-1.7,0-2.54-.82-2.54-2.47V4.55c0-1.7.85-2.54,2.54-2.54h14.19c1.64,0,2.47.85,2.47,2.54v48.89c0,1.65-.82,2.47-2.47,2.47h-14.19Z"></path>
      <path class="cls-1" d="M788.79,19.36c-1.18-.57-2.74-1.13-4.67-1.7-1.93-.57-4.18-.85-6.75-.85-2.73,0-4.64.37-5.75,1.12-1.11.75-1.66,1.61-1.66,2.58s.71,1.58,2.12,1.81,3.17.4,5.28.5c2.11.1,4.4.3,6.86.58,2.47.28,4.76.95,6.86,2,2.11,1.05,3.87,2.64,5.28,4.74,1.41,2.11,2.12,5.04,2.12,8.79,0,3.24-.82,6.04-2.47,8.41-1.64,2.37-3.8,4.32-6.48,5.86-2.67,1.54-5.7,2.7-9.06,3.47-3.37.77-6.8,1.16-10.29,1.16-2.62,0-5.08-.14-7.37-.42-2.29-.28-4.38-.63-6.29-1.04-1.9-.41-3.57-.85-5.01-1.31-1.44-.46-2.62-.87-3.55-1.23-1.54-.46-2.16-1.59-1.85-3.39l2.31-11.49c.31-1.13.82-1.7,1.54-1.7.15,0,.33.03.54.08.21.05.44.13.69.23.82.36,1.81.77,2.97,1.23,1.16.46,2.45.89,3.89,1.27,1.44.38,2.98.71,4.63.96,1.64.26,3.34.39,5.09.39,1.64,0,2.9-.12,3.78-.35.87-.23,1.5-.53,1.89-.89.38-.36.6-.78.66-1.27.05-.49.08-.99.08-1.5,0-.93-.41-1.58-1.23-1.97s-1.92-.64-3.28-.77c-1.36-.13-2.9-.19-4.63-.19s-3.48-.1-5.28-.31c-1.8-.2-3.56-.58-5.28-1.12-1.72-.54-3.27-1.39-4.63-2.54-1.36-1.16-2.46-2.69-3.28-4.59-.82-1.9-1.23-4.32-1.23-7.25,0-2.31.53-4.59,1.58-6.83,1.05-2.24,2.65-4.23,4.78-5.98,2.13-1.75,4.83-3.16,8.1-4.24,3.26-1.08,7.13-1.62,11.61-1.62h.23c2.78,0,5.38.15,7.83.46,2.44.31,4.68.68,6.71,1.12,2.03.44,3.84.9,5.44,1.39,1.59.49,2.88.94,3.86,1.35,1.59.57,2.03,1.67,1.31,3.32l-4.78,10.64c-.36.93-.98,1.39-1.85,1.39-.46,0-.92-.1-1.39-.31Z"></path>
      <path class="cls-1" d="M807.06,55.91c-1.7,0-2.54-.82-2.54-2.47V4.55c0-1.7.85-2.54,2.54-2.54h41.57c1.64,0,2.47.85,2.47,2.54v9.87c0,1.7-.82,2.54-2.47,2.54h-24.91v4.63h22.75c1.7,0,2.54.85,2.54,2.54v9.64c0,1.7-.85,2.54-2.54,2.54h-22.75v4.24h24.91c1.64,0,2.47.85,2.47,2.54v10.33c0,1.65-.82,2.47-2.47,2.47h-41.57Z"></path>
      <path class="cls-1" d="M882.33,2.01c3.96,0,7.48.77,10.57,2.31s5.68,3.57,7.79,6.09c2.11,2.52,3.73,5.4,4.86,8.64s1.75,6.54,1.85,9.91c.1,3.37-.34,6.67-1.31,9.91-.98,3.24-2.49,6.12-4.55,8.64-2.06,2.52-4.68,4.55-7.87,6.09-3.19,1.54-6.97,2.31-11.34,2.31h-21.59c-1.7,0-2.54-.82-2.54-2.47V4.55c0-1.7.85-2.54,2.54-2.54h21.59ZM877.39,19.97v18.28h2.39c2.06,0,3.77-.45,5.13-1.35,1.36-.9,2.38-2.03,3.05-3.39.67-1.36,1-2.83,1-4.4s-.34-3.03-1-4.4c-.67-1.36-1.69-2.49-3.05-3.39-1.36-.9-3.07-1.35-5.13-1.35h-2.39Z"></path>
    </g>
  </g>
</svg>