<?xml version="1.0"?>
<svg id="Layer_1" data-name="Layer 1" xmlns="http://www.w3.org/2000/svg" viewBox="0 0 786.78 213.29">
  <defs>
    
  </defs>
  <g>
    <path class="cls-1" d="M57.77,213.29c-8.49,0-16.28-1.45-23.37-4.35-7.09-2.9-13.18-6.96-18.25-12.19-5.07-5.23-9.04-11.39-11.88-18.48-2.85-7.09-4.27-14.83-4.27-23.22s1.42-16.46,4.27-23.61c2.85-7.14,6.86-13.28,12.04-18.4,5.18-5.12,11.34-9.14,18.48-12.04,7.14-2.9,14.96-4.35,23.45-4.35s16.25,1.45,23.3,4.35c7.04,2.9,13.1,6.96,18.17,12.19,5.07,5.23,9.03,11.42,11.88,18.56,2.85,7.14,4.27,14.91,4.27,23.3s-1.42,16.31-4.27,23.45c-2.85,7.15-6.83,13.28-11.96,18.41-5.13,5.12-11.26,9.14-18.4,12.04-7.15,2.9-14.96,4.35-23.45,4.35ZM57.93,136.57c-6.21,0-10.77,1.81-13.67,5.44-2.9,3.63-4.35,8.34-4.35,14.13,0,5.28,1.71,9.5,5.13,12.66,3.42,3.16,7.71,4.74,12.89,4.74,6.11,0,10.64-1.81,13.59-5.44,2.95-3.62,4.43-8.33,4.43-14.13,0-5.28-1.71-9.5-5.13-12.66-3.41-3.16-7.71-4.74-12.89-4.74Z"></path>
    <path class="cls-1" d="M197.39,141.54c-2.07-1.55-4.35-2.8-6.83-3.73-2.49-.93-5.02-1.4-7.61-1.4s-5.05.46-7.38,1.4c-2.33.93-4.38,2.23-6.13,3.88-1.76,1.66-3.16,3.65-4.19,5.98-1.04,2.33-1.55,4.89-1.55,7.69s.52,5.31,1.55,7.53c1.03,2.23,2.43,4.14,4.19,5.75,1.76,1.61,3.78,2.82,6.06,3.65,2.28.83,4.66,1.24,7.14,1.24,2.69,0,5.31-.47,7.84-1.4,2.54-.93,4.79-2.23,6.76-3.88,1.45-1.14,2.59-1.71,3.42-1.71.93,0,1.92.67,2.95,2.02l17.39,23.76c2.28,2.9,2.17,5.49-.31,7.77-2.49,2.28-5.34,4.27-8.54,5.98-3.21,1.71-6.6,3.08-10.17,4.12-3.57,1.03-7.17,1.81-10.79,2.33-3.63.52-7.09.78-10.41.78-8.07,0-15.61-1.42-22.6-4.27-6.99-2.85-13.02-6.83-18.09-11.96-5.07-5.12-9.06-11.26-11.96-18.4-2.9-7.14-4.35-14.96-4.35-23.45s1.4-16.15,4.19-23.3c2.8-7.14,6.7-13.33,11.73-18.56,5.02-5.23,11.03-9.32,18.02-12.27,6.99-2.95,14.68-4.43,23.06-4.43,3.31,0,6.78.26,10.41.78,3.62.52,7.22,1.3,10.79,2.33,3.57,1.04,6.96,2.38,10.17,4.04,3.21,1.66,6.06,3.68,8.54,6.06,2.38,2.28,2.49,4.92.31,7.92l-17.24,23.45c-1.04,1.35-2.02,2.02-2.95,2.02-.83,0-1.97-.57-3.42-1.71Z"></path>
    <path class="cls-1" d="M257.65,144.8h-22.52c-3.41,0-5.12-1.66-5.12-4.97v-34.01c0-3.42,1.71-5.12,5.12-5.12h83.87c3.42,0,5.13,1.71,5.13,5.12v34.01c0,3.31-1.71,4.97-5.13,4.97h-22.52v59.48c0,3.31-1.71,4.97-5.13,4.97h-28.58c-3.42,0-5.13-1.65-5.13-4.97v-59.48Z"></path>
    <path class="cls-1" d="M389.04,213.29c-8.49,0-16.28-1.45-23.37-4.35-7.09-2.9-13.18-6.96-18.25-12.19-5.07-5.23-9.03-11.39-11.88-18.48-2.85-7.09-4.27-14.83-4.27-23.22s1.42-16.46,4.27-23.61c2.85-7.14,6.86-13.28,12.04-18.4,5.18-5.12,11.34-9.14,18.48-12.04,7.15-2.9,14.96-4.35,23.45-4.35s16.25,1.45,23.29,4.35c7.04,2.9,13.1,6.96,18.17,12.19,5.07,5.23,9.03,11.42,11.88,18.56,2.85,7.14,4.27,14.91,4.27,23.3s-1.42,16.31-4.27,23.45c-2.85,7.15-6.83,13.28-11.96,18.41-5.13,5.12-11.26,9.14-18.41,12.04-7.14,2.9-14.96,4.35-23.45,4.35ZM389.2,136.57c-6.21,0-10.77,1.81-13.67,5.44-2.9,3.63-4.35,8.34-4.35,14.13,0,5.28,1.71,9.5,5.12,12.66,3.42,3.16,7.71,4.74,12.89,4.74,6.11,0,10.64-1.81,13.59-5.44,2.95-3.62,4.43-8.33,4.43-14.13,0-5.28-1.71-9.5-5.13-12.66-3.42-3.16-7.71-4.74-12.89-4.74Z"></path>
    <path class="cls-1" d="M523.38,100.69c4.76,0,9.32.91,13.67,2.72,4.35,1.81,8.18,4.3,11.49,7.45,3.31,3.16,5.95,6.83,7.92,11.03,1.97,4.19,2.95,8.72,2.95,13.59,0,5.9-.67,11.44-2.02,16.62-1.35,5.18-3.49,9.71-6.45,13.59-2.95,3.88-6.68,6.97-11.18,9.24-4.5,2.28-9.97,3.42-16.38,3.42h-25.78v25.94c0,3.31-1.66,4.97-4.97,4.97h-28.58c-3.42,0-5.13-1.65-5.13-4.97v-98.47c0-3.42,1.71-5.12,5.13-5.12h59.33ZM497.6,136.88v14.29h18.02c1.45,0,2.67-.7,3.65-2.1.98-1.4,1.48-3.08,1.48-5.05s-.49-3.65-1.48-5.05c-.98-1.4-2.2-2.1-3.65-2.1h-18.02Z"></path>
    <path class="cls-1" d="M607.87,152.1c0,1.97.1,3.8.31,5.51.2,1.71.7,3.21,1.47,4.5.78,1.3,1.89,2.33,3.34,3.11s3.36,1.16,5.75,1.16,4.3-.39,5.75-1.16c1.45-.78,2.56-1.81,3.34-3.11.78-1.29,1.29-2.79,1.55-4.5.26-1.71.39-3.55.39-5.51v-46.28c0-3.42,1.66-5.12,4.97-5.12h28.58c3.42,0,5.13,1.71,5.13,5.12v53.89c0,9.42-1.09,17.47-3.26,24.15-2.17,6.68-5.38,12.09-9.63,16.23-4.25,4.14-9.45,7.17-15.61,9.09-6.16,1.91-13.23,2.87-21.2,2.87s-15.04-.88-21.2-2.64c-6.16-1.76-11.34-4.66-15.53-8.7-4.19-4.04-7.38-9.4-9.55-16.07-2.17-6.68-3.26-14.99-3.26-24.93v-53.89c0-3.42,1.71-5.12,5.13-5.12h28.42c3.42,0,5.13,1.71,5.13,5.12v46.28Z"></path>
    <path class="cls-1" d="M767.21,135.64c-2.38-1.14-5.51-2.28-9.4-3.42-3.88-1.14-8.41-1.71-13.59-1.71-5.49,0-9.34.75-11.57,2.25-2.23,1.5-3.34,3.24-3.34,5.2s1.42,3.18,4.27,3.65c2.85.47,6.39.8,10.64,1.01,4.25.21,8.85.6,13.82,1.16,4.97.57,9.58,1.92,13.82,4.04,4.24,2.12,7.79,5.31,10.64,9.55,2.85,4.25,4.27,10.15,4.27,17.71,0,6.52-1.66,12.17-4.97,16.93-3.32,4.76-7.66,8.7-13.05,11.8-5.38,3.11-11.47,5.44-18.25,6.99-6.78,1.55-13.69,2.33-20.73,2.33-5.28,0-10.23-.29-14.83-.85-4.61-.57-8.83-1.27-12.66-2.1-3.83-.83-7.2-1.71-10.1-2.64-2.9-.93-5.28-1.76-7.14-2.48-3.11-.93-4.35-3.21-3.73-6.83l4.66-23.14c.62-2.28,1.65-3.42,3.11-3.42.31,0,.67.05,1.09.16.41.1.88.26,1.4.47,1.66.73,3.65,1.55,5.98,2.49,2.33.93,4.94,1.79,7.84,2.56,2.9.78,6,1.42,9.32,1.94,3.31.52,6.73.78,10.25.78,3.31,0,5.85-.23,7.61-.7,1.76-.47,3.03-1.06,3.8-1.79.78-.72,1.22-1.58,1.32-2.56.1-.98.16-1.99.16-3.03,0-1.86-.83-3.18-2.49-3.96-1.66-.78-3.86-1.29-6.6-1.55-2.75-.26-5.85-.39-9.32-.39s-7.01-.21-10.64-.62c-3.62-.41-7.17-1.16-10.64-2.25-3.47-1.09-6.58-2.79-9.32-5.12-2.74-2.33-4.95-5.41-6.6-9.24-1.66-3.83-2.49-8.7-2.49-14.6,0-4.66,1.06-9.24,3.18-13.75,2.12-4.5,5.33-8.51,9.63-12.04,4.3-3.52,9.73-6.37,16.31-8.54,6.57-2.17,14.36-3.26,23.37-3.26h.47c5.59,0,10.84.31,15.76.93,4.92.62,9.42,1.37,13.51,2.25,4.09.88,7.74,1.81,10.95,2.8,3.21.98,5.8,1.89,7.77,2.72,3.21,1.14,4.09,3.37,2.64,6.68l-9.63,21.43c-.72,1.86-1.97,2.8-3.73,2.8-.93,0-1.86-.21-2.8-.62Z"></path>
  </g>
  <g>
    <path class="cls-1" d="M36.22,66.75c-4.86,0-9.32-.83-13.38-2.49-4.06-1.66-7.54-3.98-10.44-6.98-2.9-2.99-5.17-6.52-6.8-10.58-1.63-4.06-2.44-8.49-2.44-13.29s.81-9.42,2.44-13.51c1.63-4.09,3.92-7.6,6.89-10.53,2.96-2.93,6.49-5.23,10.58-6.89,4.09-1.66,8.56-2.49,13.42-2.49s9.3.83,13.33,2.49c4.03,1.66,7.5,3.99,10.4,6.98,2.9,2.99,5.17,6.53,6.8,10.62,1.63,4.09,2.44,8.53,2.44,13.33s-.81,9.33-2.44,13.42c-1.63,4.09-3.91,7.6-6.84,10.53s-6.45,5.23-10.53,6.89-8.56,2.49-13.42,2.49ZM36.31,22.84c-3.55,0-6.16,1.04-7.82,3.11-1.66,2.07-2.49,4.77-2.49,8.09,0,3.02.98,5.44,2.93,7.24,1.96,1.81,4.41,2.71,7.38,2.71,3.5,0,6.09-1.04,7.78-3.11,1.69-2.07,2.53-4.77,2.53-8.09,0-3.02-.98-5.44-2.93-7.24-1.95-1.81-4.41-2.71-7.38-2.71Z"></path>
    <path class="cls-1" d="M134.53,61.33c0,2.01-.92,3.23-2.76,3.64-1.9.53-3.82.95-5.78,1.24-1.96.3-3.91.44-5.87.44-2.55,0-4.92-.31-7.11-.93-2.19-.62-4.09-1.57-5.69-2.84-1.6-1.27-2.85-2.92-3.73-4.93-.89-2.01-1.33-4.38-1.33-7.11,0-1.9.18-3.76.53-5.6h-4.44v16.36c0,1.9-.95,2.84-2.85,2.84h-16.35c-1.96,0-2.93-.95-2.93-2.84V5.25c0-1.96.98-2.93,2.93-2.93h33.95c2.73,0,5.33.52,7.82,1.56,2.49,1.04,4.68,2.44,6.58,4.22,1.9,1.78,3.41,3.88,4.53,6.31,1.12,2.43,1.69,5.04,1.69,7.82,0,2.37-.34,4.62-1.02,6.76-.68,2.13-1.66,4.06-2.93,5.78-1.28,1.72-2.83,3.19-4.67,4.4-1.84,1.22-3.91,2.15-6.22,2.8-.06.3-.11.56-.14.8-.03.24-.04.5-.04.8,0,1.3.41,2.19,1.24,2.67.83.47,1.83.71,3.02.71,1.36,0,2.83-.21,4.4-.62,1.57-.41,3.07-.89,4.49-1.42.53-.18.98-.27,1.33-.27.89,0,1.33.68,1.33,2.04v14.67ZM98.35,31.56h9.33c1.3,0,2.28-.41,2.93-1.24.65-.83.98-1.84.98-3.02s-.34-2.19-1.02-3.02c-.68-.83-1.65-1.24-2.89-1.24h-9.33v8.53Z"></path>
    <path class="cls-1" d="M202.08,33.96c-.18,2.02-.3,4.15-.36,6.4-.06,2.25-.09,4.89-.09,7.91,0,1.54.02,3.53.05,5.96.03,2.43.28,4.95.76,7.56.24,1.9-.57,2.84-2.4,2.84h-9.69c-2.01,0-3.35-.89-4-2.67-.12-.3-.24-.62-.36-.98-.12-.36-.24-.68-.36-.98-1.66,2.08-3.93,3.72-6.8,4.93-2.87,1.21-6.21,1.82-10,1.82-4.32,0-8.25-.83-11.78-2.49-3.53-1.66-6.55-3.94-9.07-6.84-2.52-2.9-4.46-6.34-5.82-10.31-1.36-3.97-2.04-8.27-2.04-12.89,0-4.98.8-9.55,2.4-13.73,1.6-4.18,3.84-7.79,6.71-10.84,2.87-3.05,6.31-5.42,10.31-7.11s8.4-2.53,13.2-2.53c1.9,0,3.88.15,5.95.44,2.07.3,4.13.74,6.18,1.33,2.05.59,3.98,1.36,5.82,2.31,1.83.95,3.47,2.1,4.89,3.47,1.36,1.24,1.42,2.76.18,4.53l-9.86,13.42c-.59.77-1.19,1.16-1.78,1.16-.47,0-1.13-.33-1.96-.98-1.13-.89-2.4-1.6-3.82-2.13-1.42-.53-2.87-.8-4.36-.8s-2.89.27-4.22.8c-1.33.53-2.5,1.29-3.51,2.27-1.01.98-1.81,2.15-2.4,3.51-.59,1.36-.89,2.87-.89,4.53,0,2.96.92,5.39,2.76,7.29,1.84,1.9,4.33,2.84,7.47,2.84,1.78,0,3.44-.34,4.98-1.02s2.78-1.76,3.73-3.25v-.27h-6.49c-1.95,0-2.93-.95-2.93-2.84v-2.58c0-1.96.98-2.93,2.93-2.93h24.18c1.9,0,2.73.95,2.49,2.84Z"></path>
    <path class="cls-1" d="M249.01,57.69h-18.58l-1.15,4c-.65,1.9-1.9,2.84-3.73,2.84h-16.62c-2.01,0-2.7-.92-2.04-2.76l18.31-56.71c.59-1.84,1.87-2.76,3.82-2.76h18.66c1.96,0,3.23.92,3.82,2.76l20.8,56.71c.71,1.84.09,2.76-1.87,2.76h-16.18c-1.95,0-3.23-.92-3.82-2.76l-1.42-4.09ZM245.19,46.67l-6.22-18.22-5.33,18.22h11.56Z"></path>
    <path class="cls-1" d="M281.19,64.44c-1.96,0-2.93-.95-2.93-2.84V5.25c0-1.96.98-2.93,2.93-2.93h13.16c1.95,0,3.41.83,4.35,2.49l14.13,24.36V5.25c0-1.96.98-2.93,2.93-2.93h16.35c1.96,0,2.93.98,2.93,2.93v56.35c0,1.9-.98,2.84-2.93,2.84h-13.42c-1.96,0-3.44-.8-4.45-2.4l-13.86-22.22v21.78c0,1.9-.95,2.84-2.85,2.84h-16.35Z"></path>
    <path class="cls-1" d="M346.88,64.44c-1.96,0-2.93-.95-2.93-2.84V5.25c0-1.96.98-2.93,2.93-2.93h16.35c1.9,0,2.85.98,2.85,2.93v56.35c0,1.9-.95,2.84-2.85,2.84h-16.35Z"></path>
    <path class="cls-1" d="M423.5,22.31c-1.36-.65-3.16-1.3-5.38-1.96-2.22-.65-4.82-.98-7.78-.98-3.14,0-5.35.43-6.62,1.29-1.27.86-1.91,1.85-1.91,2.98s.81,1.82,2.44,2.09,3.66.46,6.09.58c2.43.12,5.07.34,7.91.67,2.85.33,5.48,1.1,7.91,2.31,2.43,1.22,4.46,3.04,6.09,5.47,1.63,2.43,2.44,5.81,2.44,10.13,0,3.73-.95,6.96-2.85,9.69-1.9,2.73-4.39,4.98-7.46,6.76-3.08,1.78-6.56,3.11-10.45,4-3.88.89-7.84,1.33-11.87,1.33-3.02,0-5.85-.16-8.49-.49-2.64-.33-5.05-.73-7.24-1.2-2.19-.47-4.12-.98-5.78-1.51-1.66-.53-3.02-1.01-4.09-1.42-1.78-.53-2.49-1.84-2.13-3.91l2.67-13.24c.36-1.3.95-1.96,1.78-1.96.18,0,.38.03.62.09.24.06.5.15.8.27.95.42,2.09.89,3.42,1.42,1.33.53,2.83,1.02,4.49,1.47,1.66.44,3.44.81,5.33,1.11,1.9.3,3.85.44,5.87.44,1.9,0,3.35-.13,4.36-.4,1.01-.27,1.73-.61,2.18-1.02.44-.41.7-.9.76-1.47.06-.56.09-1.14.09-1.73,0-1.07-.47-1.82-1.42-2.27s-2.21-.74-3.78-.89c-1.57-.15-3.35-.22-5.33-.22s-4.02-.12-6.09-.36c-2.07-.24-4.1-.67-6.09-1.29-1.99-.62-3.76-1.6-5.34-2.93-1.57-1.33-2.83-3.1-3.78-5.29-.95-2.19-1.42-4.98-1.42-8.36,0-2.67.61-5.29,1.82-7.87,1.21-2.58,3.05-4.87,5.51-6.89,2.46-2.01,5.57-3.64,9.33-4.89,3.76-1.24,8.22-1.87,13.38-1.87h.27c3.2,0,6.21.18,9.02.53,2.81.36,5.39.79,7.73,1.29,2.34.5,4.43,1.04,6.27,1.6,1.83.56,3.32,1.08,4.44,1.56,1.84.65,2.34,1.93,1.51,3.82l-5.51,12.27c-.41,1.07-1.13,1.6-2.13,1.6-.53,0-1.06-.12-1.6-.36Z"></path>
    <path class="cls-1" d="M444.56,64.44c-1.95,0-2.93-.95-2.93-2.84V5.25c0-1.96.98-2.93,2.93-2.93h47.91c1.9,0,2.84.98,2.84,2.93v11.38c0,1.96-.95,2.93-2.84,2.93h-28.71v5.33h26.22c1.96,0,2.93.98,2.93,2.93v11.11c0,1.96-.98,2.93-2.93,2.93h-26.22v4.89h28.71c1.9,0,2.84.98,2.84,2.93v11.91c0,1.9-.95,2.84-2.84,2.84h-47.91Z"></path>
    <path class="cls-1" d="M531.31,2.31c4.56,0,8.62.89,12.18,2.67,3.55,1.78,6.55,4.12,8.98,7.02,2.43,2.9,4.3,6.22,5.6,9.96,1.3,3.73,2.01,7.54,2.13,11.42.12,3.88-.39,7.69-1.51,11.42-1.13,3.73-2.87,7.05-5.25,9.95-2.37,2.9-5.39,5.24-9.07,7.02-3.67,1.78-8.03,2.67-13.07,2.67h-24.89c-1.95,0-2.93-.95-2.93-2.84V5.25c0-1.96.98-2.93,2.93-2.93h24.89ZM525.63,23.02v21.07h2.76c2.37,0,4.34-.52,5.91-1.56,1.57-1.04,2.74-2.34,3.51-3.91.77-1.57,1.15-3.26,1.15-5.07s-.39-3.5-1.15-5.07c-.77-1.57-1.94-2.87-3.51-3.91-1.57-1.04-3.54-1.56-5.91-1.56h-2.76Z"></path>
  </g>
</svg>