<?xml version="1.0"?>
<svg id="Layer_2" data-name="Layer 2" xmlns="http://www.w3.org/2000/svg" viewBox="0 0 329.13 84.37" fill="#fff">
  <defs>
    
  </defs>
  <g id="Layer_1-2" data-name="Layer 1">
    <g>
      <polygon class="cls-1" points="246.11 8.85 247.16 8.85 247.16 5.99 248.28 5.99 248.28 5.16 244.98 5.16 244.98 5.99 246.11 5.99 246.11 8.85"></polygon>
      <polygon class="cls-1" points="249.64 6.95 250.58 8.49 251.05 8.49 252 6.9 252.01 8.85 252.97 8.85 252.96 5.16 252.1 5.16 250.83 7.29 249.53 5.16 248.67 5.16 248.67 8.85 249.64 8.85 249.64 6.95"></polygon>
      <path class="cls-1" d="M249.26,13.66c3.7,0,6.7-3.01,6.7-6.7s-3.01-6.7-6.7-6.7-6.7,3.01-6.7,6.7,3.01,6.7,6.7,6.7ZM249.26,1.32c3.11,0,5.64,2.53,5.64,5.64s-2.53,5.64-5.64,5.64-5.64-2.53-5.64-5.64,2.53-5.64,5.64-5.64Z"></path>
      <path class="cls-1" d="M4.22,23.03c1.16,1.34,2.62,2.42,4.38,3.24,1.76.82,3.82,1.23,6.2,1.23s4.4-.41,6.16-1.23c1.76-.82,3.22-1.9,4.38-3.24,1.16-1.34,2.04-2.8,2.62-4.36.58-1.57.87-3.09.87-4.56v-.78c0-1.64-.3-3.25-.91-4.83-.61-1.58-1.5-3.01-2.69-4.29-1.19-1.28-2.65-2.3-4.4-3.06-1.75-.76-3.76-1.14-6.04-1.14s-4.33.38-6.07,1.14c-1.75.76-3.21,1.78-4.4,3.06-1.19,1.28-2.08,2.71-2.67,4.29-.59,1.58-.89,3.19-.89,4.83v.78c0,1.47.29,2.99.85,4.56.57,1.57,1.44,3.02,2.6,4.36ZM7.96,10.65c.33-.93.82-1.72,1.46-2.39.64-.66,1.41-1.18,2.32-1.53.9-.36,1.92-.53,3.06-.53s2.12.18,3.03.53c.9.36,1.67.87,2.32,1.53.64.66,1.13,1.46,1.48,2.39.34.93.52,1.96.52,3.1,0,1.07-.17,2.06-.5,2.97-.33.91-.82,1.72-1.46,2.4-.64.69-1.41,1.22-2.32,1.6-.9.38-1.92.57-3.06.57s-2.16-.19-3.06-.57c-.9-.38-1.67-.91-2.32-1.6-.64-.69-1.13-1.49-1.46-2.4-.33-.91-.5-1.91-.5-2.97,0-1.14.17-2.17.5-3.1Z"></path>
      <path class="cls-1" d="M50.45,17.69c1.47-.65,2.63-1.57,3.46-2.78.89-1.29,1.34-2.91,1.34-4.86v-.57c0-1.95-.44-3.58-1.32-4.9-.88-1.32-2.14-2.32-3.78-2.99-1.64-.68-3.59-1.02-5.84-1.02h-10.79v26.21h6.62v-7.98h3.77l5.28,7.98h7.62l-6.37-9.09ZM48.08,11.93c-.32.57-.77,1.01-1.34,1.32-.57.31-1.25.46-2.03.46h-4.56v-7.59h4.56c.78,0,1.46.15,2.03.46.57.31,1.01.75,1.34,1.32s.48,1.25.48,2.03-.16,1.42-.48,1.99Z"></path>
      <path class="cls-1" d="M62.27,23.04c1.12,1.33,2.55,2.4,4.31,3.22,1.76.82,3.86,1.23,6.3,1.23,2.64,0,4.96-.5,6.96-1.51,2.01-1.01,3.56-2.45,4.65-4.33v-4.06h2.14v-4.63h-14.46v4.63h6.27v1.36c-.43.62-1.01,1.14-1.75,1.56-1.07.62-2.34.93-3.81.93-1.16,0-2.2-.19-3.1-.57-.9-.38-1.65-.92-2.24-1.62-.59-.7-1.05-1.52-1.35-2.46-.31-.94-.46-1.95-.46-3.05s.14-2.1.43-3.03c.29-.93.71-1.73,1.26-2.4.56-.68,1.25-1.2,2.07-1.57.82-.37,1.76-.55,2.83-.55s2.11.18,2.97.55c.87.37,1.57.87,2.12,1.5.55.63.89,1.34,1.03,2.12h6.62c-.19-2.04-.84-3.84-1.96-5.4-1.12-1.55-2.59-2.77-4.43-3.65-1.84-.88-3.96-1.32-6.36-1.32-2.23,0-4.18.39-5.84,1.16-1.66.77-3.05,1.8-4.15,3.08-1.1,1.28-1.93,2.71-2.48,4.29-.55,1.58-.82,3.18-.82,4.79v.78c0,1.5.26,3.03.78,4.59.52,1.57,1.34,3.02,2.46,4.35Z"></path>
      <path class="cls-1" d="M96.48,20.76h10.38l1.89,6.02h6.84L106.97.78h-10.61l-8.33,26h6.62l1.84-6.02ZM100.94,6.13h1.33l2.89,9.22h-7.03l2.81-9.22Z"></path>
      <polygon class="cls-1" points="125.34 6.05 125.88 6.05 134.53 26.78 145.47 26.78 145.47 .78 139.27 .78 139.27 21.51 138.74 21.51 130.08 .78 119.22 .78 119.22 26.78 125.34 26.78 125.34 6.05"></polygon>
      <rect class="cls-1" x="151.52" y=".78" width="6.62" height="26"></rect>
      <path class="cls-1" d="M175.83,21.65c-.65.24-1.44.36-2.37.36-1.07,0-1.95-.14-2.64-.43-.69-.29-1.21-.68-1.55-1.19-.34-.51-.52-1.07-.52-1.69h-6.41c0,1.71.42,3.22,1.26,4.54.84,1.32,2.09,2.36,3.74,3.12,1.65.76,3.69,1.14,6.11,1.14,2.26,0,4.18-.34,5.79-1.03s2.84-1.66,3.7-2.92c.87-1.26,1.3-2.73,1.3-4.42s-.43-3.11-1.28-4.27c-.85-1.16-2.03-2.08-3.53-2.76s-3.22-1.1-5.16-1.26l-1.67-.14c-1.12-.09-1.9-.38-2.35-.85-.45-.47-.68-1.04-.68-1.71,0-.5.12-.95.37-1.35.25-.4.62-.72,1.1-.94.49-.23,1.09-.34,1.8-.34.76,0,1.41.14,1.94.41.53.27.94.65,1.23,1.12.28.48.43,1,.43,1.57h6.41c0-1.71-.39-3.21-1.18-4.51-.78-1.29-1.92-2.3-3.4-3.01-1.48-.71-3.29-1.07-5.43-1.07-1.97,0-3.68.32-5.13.96-1.45.64-2.57,1.57-3.37,2.78-.8,1.21-1.19,2.67-1.19,4.38,0,2.4.8,4.32,2.39,5.77,1.59,1.45,3.73,2.29,6.41,2.53l1.67.14c1.52.12,2.6.39,3.24.8.64.42.96,1,.96,1.76,0,.59-.17,1.1-.52,1.53-.34.43-.84.76-1.5,1Z"></path>
      <polygon class="cls-1" points="205.05 21.37 194.79 21.37 194.79 16.28 204.3 16.28 204.3 10.86 194.79 10.86 194.79 6.2 204.84 6.2 204.84 .78 194.79 .78 194.08 .78 188.38 .78 188.38 26.78 194.08 26.78 194.79 26.78 205.05 26.78 205.05 21.37"></polygon>
      <path class="cls-1" d="M216.8,26.93h3.28c2.35,0,4.41-.36,6.18-1.09,1.77-.72,3.25-1.7,4.43-2.92,1.19-1.22,2.08-2.6,2.67-4.13.59-1.53.89-3.09.89-4.68v-.78c0-1.73-.3-3.37-.89-4.91-.59-1.54-1.48-2.9-2.67-4.08-1.19-1.18-2.67-2.1-4.43-2.76-1.77-.66-3.83-1-6.18-1h-9.9v26.36h6.62ZM216.8,6.77h3.56c1.12,0,2.12.15,3.01.45.89.3,1.64.74,2.26,1.32.62.58,1.09,1.31,1.42,2.17.33.87.5,1.87.5,3.01s-.17,2.07-.5,2.94c-.33.87-.81,1.6-1.42,2.21-.62.61-1.37,1.07-2.26,1.39-.89.32-1.89.48-3.01.48h-3.56V6.77Z"></path>
      <path class="cls-1" d="M42.71,43.71c-2.07-2.24-4.63-4.02-7.68-5.35-3.05-1.33-6.56-1.99-10.54-1.99s-7.55.66-10.6,1.99c-3.05,1.33-5.61,3.11-7.68,5.35-2.07,2.24-3.63,4.74-4.66,7.49-1.04,2.76-1.55,5.56-1.55,8.42v1.37c0,2.57.5,5.22,1.49,7.96s2.51,5.27,4.54,7.62c2.03,2.34,4.58,4.23,7.65,5.66,3.07,1.43,6.67,2.14,10.82,2.14s7.69-.71,10.76-2.14c3.07-1.43,5.62-3.32,7.65-5.66,2.03-2.34,3.55-4.88,4.57-7.62,1.01-2.74,1.52-5.39,1.52-7.96v-1.37c0-2.86-.53-5.67-1.59-8.42-1.06-2.76-2.62-5.25-4.69-7.49ZM36.43,65.56c-.58,1.6-1.43,2.99-2.55,4.2-1.12,1.2-2.47,2.14-4.04,2.8-1.58.66-3.36.99-5.35.99s-3.77-.33-5.35-.99c-1.58-.66-2.92-1.6-4.04-2.8-1.12-1.2-1.97-2.6-2.55-4.2-.58-1.6-.87-3.33-.87-5.19,0-1.99.29-3.79.87-5.41.58-1.62,1.43-3,2.55-4.17,1.12-1.16,2.47-2.05,4.04-2.67,1.57-.62,3.36-.93,5.35-.93s3.71.31,5.28.93c1.57.62,2.92,1.51,4.04,2.67,1.12,1.16,1.98,2.55,2.58,4.17.6,1.62.9,3.42.9,5.41,0,1.87-.29,3.6-.87,5.19Z"></path>
      <path class="cls-1" d="M85.77,71.44c-2.01,1.41-4.47,2.11-7.37,2.11-1.87,0-3.52-.3-4.97-.9-1.45-.6-2.68-1.48-3.7-2.64-1.02-1.16-1.78-2.55-2.3-4.17-.52-1.62-.78-3.44-.78-5.47s.26-3.85.78-5.47c.52-1.62,1.26-2.99,2.24-4.13.97-1.14,2.18-2.02,3.61-2.64s3.04-.93,4.82-.93c1.91,0,3.61.32,5.1.96,1.49.64,2.71,1.54,3.67,2.7.95,1.16,1.57,2.53,1.87,4.1h11.56c-.33-3.69-1.47-6.93-3.42-9.73-1.95-2.8-4.53-4.97-7.74-6.53-3.21-1.55-6.89-2.33-11.04-2.33-3.9,0-7.3.66-10.2,1.99-2.9,1.33-5.32,3.11-7.24,5.35-1.93,2.24-3.36,4.74-4.29,7.49-.93,2.76-1.4,5.56-1.4,8.42v1.37c0,2.57.46,5.22,1.37,7.96.91,2.74,2.32,5.27,4.23,7.62,1.91,2.34,4.33,4.23,7.27,5.66,2.94,1.43,6.47,2.14,10.57,2.14,4.39,0,8.21-.84,11.44-2.52,3.23-1.68,5.8-3.93,7.71-6.75,1.91-2.82,3.05-5.93,3.42-9.33h-11.56c-.41,2.36-1.63,4.25-3.64,5.66Z"></path>
      <polygon class="cls-1" points="104.45 47.81 116.88 47.81 116.88 83.13 128.45 83.13 128.45 47.81 140.88 47.81 140.88 37.74 104.45 37.74 104.45 47.81"></polygon>
      <path class="cls-1" d="M187.2,43.71c-2.07-2.24-4.63-4.02-7.68-5.35-3.05-1.33-6.56-1.99-10.54-1.99s-7.55.66-10.6,1.99c-3.05,1.33-5.61,3.11-7.68,5.35-2.07,2.24-3.63,4.74-4.66,7.49-1.04,2.76-1.55,5.56-1.55,8.42v1.37c0,2.57.5,5.22,1.49,7.96s2.51,5.27,4.54,7.62c2.03,2.34,4.58,4.23,7.65,5.66,3.07,1.43,6.67,2.14,10.82,2.14s7.69-.71,10.76-2.14c3.07-1.43,5.62-3.32,7.65-5.66,2.03-2.34,3.55-4.88,4.57-7.62,1.01-2.74,1.52-5.39,1.52-7.96v-1.37c0-2.86-.53-5.67-1.59-8.42-1.06-2.76-2.62-5.25-4.69-7.49ZM180.92,65.56c-.58,1.6-1.43,2.99-2.55,4.2-1.12,1.2-2.47,2.14-4.04,2.8-1.58.66-3.36.99-5.35.99s-3.77-.33-5.35-.99c-1.58-.66-2.92-1.6-4.04-2.8-1.12-1.2-1.97-2.6-2.55-4.2-.58-1.6-.87-3.33-.87-5.19,0-1.99.29-3.79.87-5.41.58-1.62,1.43-3,2.55-4.17,1.12-1.16,2.47-2.05,4.04-2.67,1.57-.62,3.36-.93,5.35-.93s3.71.31,5.28.93c1.57.62,2.92,1.51,4.04,2.67,1.12,1.16,1.98,2.55,2.58,4.17.6,1.62.9,3.42.9,5.41,0,1.87-.29,3.6-.87,5.19Z"></path>
      <path class="cls-1" d="M229.26,39.33c-2.84-1.31-6.21-1.96-10.1-1.96h-17.47v45.76h11.56v-12.06h5.91c3.9,0,7.26-.66,10.1-1.99,2.84-1.33,5.03-3.21,6.56-5.66,1.53-2.45,2.3-5.35,2.3-8.7v-.99c0-3.4-.77-6.32-2.3-8.77-1.53-2.45-3.72-4.32-6.56-5.63ZM225.56,57.89c-.58,1.04-1.39,1.83-2.42,2.39-1.04.56-2.26.84-3.67.84h-6.22v-13.8h6.22c1.41,0,2.63.27,3.67.81,1.04.54,1.84,1.33,2.42,2.36.58,1.04.87,2.28.87,3.73s-.29,2.63-.87,3.67Z"></path>
      <path class="cls-1" d="M272.99,64.79c0,1.82-.33,3.39-.99,4.69-.66,1.31-1.64,2.31-2.92,3.02-1.29.71-2.86,1.06-4.73,1.06s-3.44-.35-4.73-1.06c-1.29-.7-2.27-1.72-2.95-3.05-.68-1.33-1.03-2.88-1.03-4.66v-27.04h-11.56v26.8c0,4.06.79,7.58,2.36,10.54,1.57,2.96,3.86,5.25,6.87,6.87,3,1.62,6.68,2.42,11.04,2.42s8.03-.81,11.04-2.42c3-1.62,5.28-3.91,6.84-6.87,1.55-2.96,2.33-6.48,2.33-10.54v-26.8h-11.56v27.04Z"></path>
      <path class="cls-1" d="M326.9,62.3c-1.49-2.03-3.54-3.64-6.15-4.82-2.61-1.18-5.62-1.92-9.01-2.21l-2.92-.25c-1.95-.17-3.32-.66-4.1-1.49-.79-.83-1.18-1.82-1.18-2.98,0-.87.22-1.66.65-2.36.44-.7,1.08-1.25,1.93-1.65.85-.39,1.9-.59,3.14-.59,1.33,0,2.46.24,3.39.71.93.48,1.65,1.13,2.15,1.96.5.83.75,1.74.75,2.74h11.19c0-2.98-.68-5.61-2.05-7.86-1.37-2.26-3.35-4.01-5.94-5.25-2.59-1.24-5.75-1.87-9.48-1.87-3.44,0-6.43.56-8.95,1.68-2.53,1.12-4.49,2.74-5.88,4.85-1.39,2.11-2.08,4.66-2.08,7.65,0,4.19,1.39,7.54,4.17,10.07,2.78,2.53,6.51,4,11.19,4.41l2.92.25c2.65.21,4.54.67,5.66,1.4,1.12.73,1.68,1.75,1.68,3.08,0,1.04-.3,1.93-.9,2.67-.6.75-1.47,1.33-2.61,1.74-1.14.41-2.52.62-4.13.62-1.87,0-3.4-.25-4.6-.75-1.2-.5-2.1-1.19-2.7-2.08-.6-.89-.9-1.87-.9-2.95h-11.19c0,2.98.74,5.63,2.21,7.93,1.47,2.3,3.65,4.11,6.53,5.44,2.88,1.33,6.43,1.99,10.66,1.99,3.94,0,7.3-.6,10.1-1.8s4.95-2.9,6.47-5.1c1.51-2.2,2.27-4.77,2.27-7.71s-.75-5.43-2.24-7.46Z"></path>
    </g>
  </g>
</svg>