<?xml version="1.0"?>
<svg id="Layer_2" data-name="Layer 2" xmlns="http://www.w3.org/2000/svg" viewBox="0 0 385.37 183.81">
  <defs>
    
  </defs>
  <g id="Layer_1-2" data-name="Layer 1">
    <g>
      <path class="cls-1" d="M91.88,0C41.22,0,0,41.22,0,91.88s41.22,91.88,91.88,91.88c5.91,0,11.68-.56,17.28-1.63,26.37-5.03,48.77-21.38,61.96-43.78,8.03-13.64,12.64-29.53,12.64-46.47C183.76,41.22,142.54,0,91.88,0ZM91.88,161.58c-3.99,0-7.91-.34-11.72-.99-32.87-5.59-57.98-34.27-57.98-68.71,0-38.44,31.27-69.7,69.7-69.7s69.7,31.27,69.7,69.7c0,4.08-.35,8.08-1.03,11.97-5.69,32.75-34.32,57.73-68.67,57.73Z"></path>
      <path class="cls-1" d="M171.27,134.53c0,1.29-.05,2.56-.15,3.82-13.18,22.4-35.59,38.74-61.96,43.78-12.18-3.27-22.49-11.09-29-21.53-4.73-7.56-7.45-16.49-7.45-26.06,0-27.22,22.06-49.28,49.28-49.28,15.62,0,29.54,7.27,38.57,18.6,6.71,8.42,10.72,19.08,10.72,30.68Z"></path>
      <g>
        <path class="cls-1" d="M201.6,37.51v108.84c0,20.66,16.81,37.46,37.46,37.46h108.84c20.65,0,37.46-16.81,37.46-37.46V37.51c0-20.65-16.81-37.46-37.46-37.46h-108.84c-20.65,0-37.46,16.81-37.46,37.46ZM223.78,37.51c0-8.43,6.85-15.28,15.28-15.28h108.84c8.43,0,15.28,6.85,15.28,15.28v108.84c0,8.43-6.85,15.28-15.28,15.28h-108.84c-8.43,0-15.28-6.85-15.28-15.28V37.51Z"></path>
        <path class="cls-1" d="M291.43,139.16c0,8.1,1.95,15.74,5.41,22.48,4.98,9.71,13.09,17.54,23,22.18h28.07c20.65,0,37.46-16.81,37.46-37.46v-28.06c-4.64-9.91-12.47-18.01-22.18-23-6.74-3.46-14.38-5.41-22.48-5.41-27.22,0-49.28,22.06-49.28,49.28Z"></path>
      </g>
    </g>
  </g>
</svg>